<svg xmlns="http://www.w3.org/2000/svg" width="34" height="35" fill="none"><path fill="#fff" d="M33.15 16.345a8.64 8.64 0 0 1 .559 5.34 8.6 8.6 0 0 1-.978 2.537q-.452.79-1.064 1.476c-.405.451-.857.86-1.347 1.218a8.6 8.6 0 0 1-3.31 1.457 8.6 8.6 0 0 1-1.232 2.425 8.6 8.6 0 0 1-1.92 1.92 8.65 8.65 0 0 1-5.108 1.655 8.8 8.8 0 0 1-1.81-.182 8.6 8.6 0 0 1-3.3-1.476 8.5 8.5 0 0 1-1.338-1.225 8.67 8.67 0 0 1-5.348-.559 8.6 8.6 0 0 1-2.278-1.483 8.8 8.8 0 0 1-1.709-2.117 8.58 8.58 0 0 1-1.121-5.251 8.6 8.6 0 0 1 .387-1.773A8.8 8.8 0 0 1 .75 18.029a8.7 8.7 0 0 1-.559-5.341 8.6 8.6 0 0 1 .978-2.536 8.6 8.6 0 0 1 1.06-1.476 8.7 8.7 0 0 1 1.35-1.218A8.5 8.5 0 0 1 6.89 6a8.64 8.64 0 0 1 8.26-6 8.6 8.6 0 0 1 3.539.741 8.55 8.55 0 0 1 2.916 2.138 8.7 8.7 0 0 1 5.34.559 8.7 8.7 0 0 1 3.988 3.597 8.6 8.6 0 0 1 1.125 3.435 8.6 8.6 0 0 1-.39 3.596 8.6 8.6 0 0 1 1.483 2.279M21.214 31.637a6.4 6.4 0 0 0 2.089-1.397 6.46 6.46 0 0 0 1.888-4.556v-7.989l-.008-.025-.01-.021-.018-.018-.022-.014-2.89-1.67v9.65a1.13 1.13 0 0 1-.151.563q-.074.13-.18.232-.104.105-.232.18l-6.845 3.95c-.058.036-.154.087-.205.115q.428.36.914.638.488.28 1.014.473a6.5 6.5 0 0 0 2.192.383c.845 0 1.683-.168 2.464-.494M4.912 26.213a6.435 6.435 0 0 0 6.419 3.163 6.5 6.5 0 0 0 2.379-.806l6.92-3.994.018-.018.011-.02.01-.022v-3.367l-8.353 4.832q-.129.074-.268.114a1.2 1.2 0 0 1-.294.036q-.145.001-.29-.036a1.3 1.3 0 0 1-.272-.114l-6.846-3.955c-.06-.036-.15-.09-.2-.122a6.5 6.5 0 0 0-.097 1.114 6.5 6.5 0 0 0 .39 2.192q.194.527.473 1.01zM3.114 11.276a6.44 6.44 0 0 0 2.357 8.797l6.917 3.998.025.008h.025q.015 0 .025-.008l.022-.01 2.901-1.677-8.353-4.821a1.15 1.15 0 0 1-.412-.412 1.2 1.2 0 0 1-.111-.272 1 1 0 0 1-.036-.29V8.454a6.5 6.5 0 0 0-1.014.473q-.483.284-.913.644-.426.36-.788.792c-.24.283-.451.591-.638.913zm23.76 5.531q.13.073.236.18.104.102.18.232c.046.086.085.18.11.272.022.097.036.194.033.294v8.135a6.4 6.4 0 0 0 2.894-2.139 6.45 6.45 0 0 0 .591-6.885 6.4 6.4 0 0 0-2.49-2.596l-6.916-3.998-.026-.007h-.025l-.025.007-.021.01-2.887 1.67 8.353 4.825zm2.883-4.334h-.003v.003zm-.003-.004a6.442 6.442 0 0 0-6.068-7.526 6.5 6.5 0 0 0-3.496.856l-6.917 3.994-.018.018-.014.022-.011.05v3.338l8.353-4.825c.086-.05.18-.086.272-.114a1.2 1.2 0 0 1 .29-.036q.15-.002.294.036.14.04.269.114l6.845 3.955c.061.036.15.086.2.118m-18.1-3.696a1.15 1.15 0 0 1 .33-.796 1 1 0 0 1 .232-.175l6.845-3.951c.065-.04.154-.09.205-.115a6.4 6.4 0 0 0-3.3-1.44 6.44 6.44 0 0 0-7.26 6.39v7.988l.007.026.01.021.019.022q.007.007.021.014l2.89 1.67zm1.569 10.556 3.722 2.149 3.721-2.15v-4.294l-3.718-2.15-3.722 2.15z"/></svg>